<svg width='24' height='24' viewBox='0 0 24 24' xmlns='http://www.w3.org/2000/svg' xmlns:xlink='http://www.w3.org/1999/xlink'><rect width='24' height='24' stroke='none' fill='#000000' opacity='0'/>


<g transform="matrix(0.91 0 0 0.91 12 12)" >
<path style="stroke: none; stroke-width: 1; stroke-dasharray: none; stroke-linecap: butt; stroke-dashoffset: 0; stroke-linejoin: miter; stroke-miterlimit: 4; fill: rgb(0,0,0); fill-rule: nonzero; opacity: 1;" transform=" translate(-12, -12)" d="M 18.34375 3.0097656 C 17.915711 3.0097656 17.487893 3.1725385 17.173828 3.4980469 L 10.208984 10.728516 L 6.8261719 7.2148438 C 6.5121071 6.8893353 6.0842894 6.7265625 5.65625 6.7265625 C 5.2282106 6.7265625 4.8003929 6.8893353 4.4863281 7.2148438 L 4.484375 7.2148438 L 1.4570312 10.357422 C 0.85175908 10.985679 0.85175908 12.000649 1.4570312 12.628906 L 9.0390625 20.501953 C 9.2746111 20.746084 9.5750159 20.897952 9.890625 20.958984 C 9.8912349 20.959104 9.8919681 20.958866 9.8925781 20.958984 C 10.084936 20.995949 10.281301 20.995866 10.474609 20.964844 C 10.597892 20.945059 10.719509 20.914624 10.835938 20.867188 C 11.035903 20.786215 11.221365 20.664332 11.378906 20.501953 C 11.379908 20.50092 11.381813 20.501036 11.382812 20.5 L 22.523438 8.9335938 C 22.525743 8.9312037 22.527009 8.9281815 22.529297 8.9257812 L 22.542969 8.9121094 C 23.148241 8.2838521 23.148241 7.2688822 22.542969 6.640625 L 22.523438 6.6210938 L 19.515625 3.4980469 L 19.513672 3.4980469 C 19.199654 3.1725385 18.771789 3.0097656 18.34375 3.0097656 z M 18.34375 5.1660156 L 20.857422 7.7773438 L 12.853516 16.089844 L 10.210938 18.832031 L 7.6992188 16.220703 L 18.34375 5.1660156 z M 5.65625 8.8828125 L 8.8222656 12.169922 L 6.3046875 14.78125 L 3.140625 11.494141 L 5.65625 8.8828125 z" stroke-linecap="round" />
</g>
</svg>